<svg xmlns="http://www.w3.org/2000/svg" viewBox="0 0 256 256" width="256" height="256" fill="none">
  <title>Top right corner ornament</title>
  <g transform="translate(256 0) scale(-1 1)" stroke-linecap="round" stroke-linejoin="round">
    <!-- Main border lines -->
    <path d="M18 20 H226" stroke="#C8A25A" stroke-width="3"/>
    <path d="M20 18 V226" stroke="#C8A25A" stroke-width="3"/>

    <!-- End finials -->
    <path d="M226 20 C232 18 235 16 238 12 C239 16 242 19 246 20 C242 21 239 24 238 28 C235 24 232 22 226 20 Z" fill="#C8A25A" stroke="#8E6A34" stroke-width="1"/>
    <path d="M20 226 C22 232 24 235 28 238 C24 239 21 242 20 246 C19 242 16 239 12 238 C16 235 18 232 20 226 Z" fill="#C8A25A" stroke="#8E6A34" stroke-width="1"/>

    <!-- Corner body -->
    <path d="M21 21 C40 22 52 27 62 39 C70 49 74 61 76 78 C58 76 46 72 36 64 C24 55 20 42 21 21 Z" fill="#E0C07A" stroke="#8E6A34" stroke-width="1.4"/>
    <path d="M22 22 C41 24 55 31 64 43 C52 41 43 37 35 30 C28 25 24 23 22 22 Z" fill="#C8A25A" opacity="0.7" stroke="none"/>

    <!-- Outer framing arcs -->
    <path d="M20 36 C21 30 24 26 30 23 C47 20 58 23 67 31 C74 37 79 46 84 60" stroke="#C8A25A" stroke-width="2.2"/>
    <path d="M36 20 C30 21 26 24 23 30 C20 47 23 58 31 67 C37 74 46 79 60 84" stroke="#C8A25A" stroke-width="2.2"/>

    <!-- Main inward flourish -->
    <path d="M58 58 C80 54 97 58 112 71 C128 85 132 106 120 120 C110 132 93 132 86 120 C81 111 84 101 92 96 C101 90 112 95 113 104 C114 110 111 114 105 116" stroke="#C8A25A" stroke-width="2.4"/>
    <path d="M56 58 C66 79 67 96 58 113 C49 131 37 139 23 141" stroke="#8E6A34" stroke-width="1.4" opacity="0.75"/>
    <path d="M72 70 C60 85 55 99 57 116 C59 132 69 145 86 154" stroke="#C8A25A" stroke-width="1.8" opacity="0.9"/>

    <!-- Scroll curls -->
    <path d="M95 95 C103 88 112 89 117 95 C122 101 121 109 116 114 C110 120 100 118 97 111 C94 104 96 99 101 95" stroke="#8E6A34" stroke-width="1.3" opacity="0.7"/>
    <path d="M62 126 C55 133 55 145 62 152 C69 160 80 159 87 153 C93 148 94 140 90 135" stroke="#C8A25A" stroke-width="2"/>
    <path d="M33 83 C28 79 22 80 19 85 C16 90 17 97 21 100 C25 103 31 102 34 98" stroke="#C8A25A" stroke-width="1.8"/>
    <path d="M82 34 C89 29 98 30 103 36 C108 42 107 50 102 55 C96 61 87 59 83 52" stroke="#C8A25A" stroke-width="1.8"/>

    <!-- Small leaf at corner -->
    <path d="M44 34 C49 26 56 23 66 22 C64 31 61 38 54 43 C49 40 46 37 44 34 Z" fill="#D9B56B" stroke="#8E6A34" stroke-width="1"/>
    <path d="M42 44 C47 38 54 36 63 36 C60 45 55 50 47 54 C44 50 43 47 42 44 Z" fill="#D9B56B" stroke="#8E6A34" stroke-width="1"/>
    <path d="M49 26 C52 33 52 39 48 49" stroke="#8E6A34" stroke-width="1"/>
    <path d="M46 39 C53 39 58 40 62 44" stroke="#8E6A34" stroke-width="0.9"/>

    <!-- Top filigree extension -->
    <path d="M74 31 C91 34 109 40 127 48 C143 55 160 58 176 56 C189 54 198 49 205 41" stroke="#C8A25A" stroke-width="1.8"/>
    <path d="M141 50 C136 42 138 34 145 30 C152 26 161 29 164 35 C167 41 165 48 159 51 C153 54 146 53 141 50" stroke="#C8A25A" stroke-width="1.5"/>
    <path d="M154 30 C157 24 162 20 170 18 C169 25 166 30 160 34" fill="#D9B56B" stroke="#8E6A34" stroke-width="0.9"/>
    <path d="M183 51 C191 57 201 58 209 54 C216 50 219 43 217 36 C215 30 211 27 205 27" stroke="#8E6A34" stroke-width="1.2" opacity="0.75"/>

    <!-- Left filigree extension -->
    <path d="M31 74 C34 91 40 109 48 127 C55 143 58 160 56 176 C54 189 49 198 41 205" stroke="#C8A25A" stroke-width="1.8"/>
    <path d="M50 141 C42 136 34 138 30 145 C26 152 29 161 35 164 C41 167 48 165 51 159 C54 153 53 146 50 141" stroke="#C8A25A" stroke-width="1.5"/>
    <path d="M30 154 C24 157 20 162 18 170 C25 169 30 166 34 160" fill="#D9B56B" stroke="#8E6A34" stroke-width="0.9"/>
    <path d="M51 183 C57 191 58 201 54 209 C50 216 43 219 36 217 C30 215 27 211 27 205" stroke="#8E6A34" stroke-width="1.2" opacity="0.75"/>
  </g>
</svg>
